<?xml version="1.0" standalone="no"?>
<!DOCTYPE svg PUBLIC "-//W3C//DTD SVG 1.1//EN"
"http://www.w3.org/Graphics/SVG/1.1/DTD/svg11.dtd">

<svg width="536" height="440" view_box="0 0 536 440"
xmlns="http://www.w3.org/2000/svg"
xmlns:link="http://www.w3.org/1999/xlink">\n\n<desc>Généré par Mocodo 2.3.7 le Sat, 31 Jul 2021 10:31:55</desc>

<rect id="frame" x="0" y="0" width="536" height="440" fill="#ffffbf" stroke="none" stroke-width="0"/>

<!-- Association write -->
<line x1="384" y1="68" x2="490" y2="68" stroke="#f46d43" stroke-width="2"/>
<text x="426" y="85.0" fill="#4575b4" font-family="Verdana" font-size="12">1,1</text>
<line x1="490" y1="237" x2="490" y2="68" stroke="#f46d43" stroke-width="2"/>
<text x="495.0" y="170" fill="#4575b4" font-family="Verdana" font-size="12">0,N</text>
<g id="association-write">
	<path d="M 499 43 a 14 14 90 0 1 14 14 V 68 h -46 V 57 a 14 14 90 0 1 14 -14" fill="#fdae61" stroke="#fdae61" stroke-width="0"/>
	<path d="M 513 68.0 v 11 a 14 14 90 0 1 -14 14 H 481 a 14 14 90 0 1 -14 -14 V 68.0 H 46" fill="#fee090" stroke="#fee090" stroke-width="0"/>
	<rect x="467" y="43" width="46" height="50" fill="none" rx="14" stroke="#f46d43" stroke-width="2"/>
	<line x1="467" y1="68" x2="513" y2="68" stroke="#f46d43" stroke-width="1"/>
	<text x="474" y="60.7" fill="#000000" font-family="Verdana" font-size="12">write</text>
</g>

<!-- Association belongs to -->
<line x1="48" y1="68" x2="156" y2="68" stroke="#f46d43" stroke-width="2"/>
<text x="90" y="85.0" fill="#4575b4" font-family="Verdana" font-size="12">0,N</text>
<line x1="156" y1="237" x2="156" y2="68" stroke="#f46d43" stroke-width="2"/>
<text x="130.0" y="144" fill="#4575b4" font-family="Verdana" font-size="12">1,1</text>
<g id="association-belongs to">
	<path d="M 181 43 a 14 14 90 0 1 14 14 V 68 h -78 V 57 a 14 14 90 0 1 14 -14" fill="#fdae61" stroke="#fdae61" stroke-width="0"/>
	<path d="M 195 68.0 v 11 a 14 14 90 0 1 -14 14 H 131 a 14 14 90 0 1 -14 -14 V 68.0 H 78" fill="#fee090" stroke="#fee090" stroke-width="0"/>
	<rect x="117" y="43" width="78" height="50" fill="none" rx="14" stroke="#f46d43" stroke-width="2"/>
	<line x1="117" y1="68" x2="195" y2="68" stroke="#f46d43" stroke-width="1"/>
	<text x="124" y="60.7" fill="#000000" font-family="Verdana" font-size="12">belongs to</text>
</g>

<!-- Association is posted on -->
<line x1="384" y1="68" x2="271" y2="68" stroke="#f46d43" stroke-width="2"/>
<text x="321" y="85.0" fill="#4575b4" font-family="Verdana" font-size="12">1,1</text>
<line x1="156" y1="237" x2="271" y2="68" stroke="#f46d43" stroke-width="2"/>
<text x="202" y="188.544750065" fill="#4575b4" font-family="Verdana" font-size="12">0,N</text>
<g id="association-is posted on">
	<path d="M 301 43 a 14 14 90 0 1 14 14 V 68 h -88 V 57 a 14 14 90 0 1 14 -14" fill="#fdae61" stroke="#fdae61" stroke-width="0"/>
	<path d="M 315 68.0 v 11 a 14 14 90 0 1 -14 14 H 241 a 14 14 90 0 1 -14 -14 V 68.0 H 88" fill="#fee090" stroke="#fee090" stroke-width="0"/>
	<rect x="227" y="43" width="88" height="50" fill="none" rx="14" stroke="#f46d43" stroke-width="2"/>
	<line x1="227" y1="68" x2="315" y2="68" stroke="#f46d43" stroke-width="1"/>
	<text x="234" y="60.7" fill="#000000" font-family="Verdana" font-size="12">is posted on</text>
</g>

<!-- Association have -->
<line x1="271" y1="389" x2="156" y2="389" stroke="#f46d43" stroke-width="2"/>
<text x="207" y="406.0" fill="#4575b4" font-family="Verdana" font-size="12">0,N</text>
<line x1="156" y1="237" x2="156" y2="389" stroke="#f46d43" stroke-width="2"/>
<text x="161.0" y="339" fill="#4575b4" font-family="Verdana" font-size="12">1,N</text>
<g id="association-have">
	<path d="M 164 364 a 14 14 90 0 1 14 14 V 389 h -44 V 378 a 14 14 90 0 1 14 -14" fill="#fdae61" stroke="#fdae61" stroke-width="0"/>
	<path d="M 178 389.0 v 11 a 14 14 90 0 1 -14 14 H 148 a 14 14 90 0 1 -14 -14 V 389.0 H 44" fill="#fee090" stroke="#fee090" stroke-width="0"/>
	<rect x="134" y="364" width="44" height="50" fill="none" rx="14" stroke="#f46d43" stroke-width="2"/>
	<line x1="134" y1="389" x2="178" y2="389" stroke="#f46d43" stroke-width="1"/>
	<text x="141" y="381.7" fill="#000000" font-family="Verdana" font-size="12">have</text>
</g>

<!-- Association write in -->
<line x1="48" y1="389" x2="48" y2="237" stroke="#f46d43" stroke-width="2"/>
<text x="53.0" y="339" fill="#4575b4" font-family="Verdana" font-size="12">0,N</text>
<line x1="156" y1="237" x2="48" y2="237" stroke="#f46d43" stroke-width="2"/>
<text x="88" y="254.0" fill="#4575b4" font-family="Verdana" font-size="12">1,N</text>
<g id="association-write in">
	<path d="M 64 212 a 14 14 90 0 1 14 14 V 237 h -60 V 226 a 14 14 90 0 1 14 -14" fill="#fdae61" stroke="#fdae61" stroke-width="0"/>
	<path d="M 78 237.0 v 11 a 14 14 90 0 1 -14 14 H 32 a 14 14 90 0 1 -14 -14 V 237.0 H 60" fill="#fee090" stroke="#fee090" stroke-width="0"/>
	<rect x="18" y="212" width="60" height="50" fill="none" rx="14" stroke="#f46d43" stroke-width="2"/>
	<line x1="18" y1="237" x2="78" y2="237" stroke="#f46d43" stroke-width="1"/>
	<text x="25" y="229.7" fill="#000000" font-family="Verdana" font-size="12">write in</text>
</g>

<!-- Association released in -->
<line x1="384" y1="237" x2="271" y2="237" stroke="#f46d43" stroke-width="2"/>
<text x="320" y="254.0" fill="#4575b4" font-family="Verdana" font-size="12">0,N</text>
<line x1="156" y1="237" x2="271" y2="237" stroke="#f46d43" stroke-width="2"/>
<text x="202" y="254.0" fill="#4575b4" font-family="Verdana" font-size="12">1,N</text>
<g id="association-released in">
	<path d="M 298 212 a 14 14 90 0 1 14 14 V 237 h -82 V 226 a 14 14 90 0 1 14 -14" fill="#fdae61" stroke="#fdae61" stroke-width="0"/>
	<path d="M 312 237.0 v 11 a 14 14 90 0 1 -14 14 H 244 a 14 14 90 0 1 -14 -14 V 237.0 H 82" fill="#fee090" stroke="#fee090" stroke-width="0"/>
	<rect x="230" y="212" width="82" height="50" fill="none" rx="14" stroke="#f46d43" stroke-width="2"/>
	<line x1="230" y1="237" x2="312" y2="237" stroke="#f46d43" stroke-width="1"/>
	<text x="237" y="229.7" fill="#000000" font-family="Verdana" font-size="12">released in</text>
</g>

<!-- Entity LANGUAGE -->
<g id="entity-LANGUAGE">
	<g id="frame-LANGUAGE">
		<rect x="9" y="347" width="78" height="25" fill="#abd9e9" stroke="#abd9e9" stroke-width="0"/>
		<rect x="9" y="372.0" width="78" height="59" fill="#e0f3f8" stroke="#e0f3f8" stroke-width="0"/>
		<rect x="9" y="347" width="78" height="84" fill="none" stroke="#74add1" stroke-width="2"/>
		<line x1="9" y1="372" x2="87" y2="372" stroke="#74add1" stroke-width="1"/>
	</g>
	<text x="14" y="364.7" fill="#000000" font-family="Verdana" font-size="12">LANGUAGE</text>
	<text x="14" y="389.8" fill="#000000" font-family="Verdana" font-size="12">name</text>
	<line x1="14" y1="392" x2="49" y2="392" stroke="#000000" stroke-width="1"/>
	<text x="14" y="406.8" fill="#000000" font-family="Verdana" font-size="12">createdAt</text>
	<text x="14" y="423.8" fill="#000000" font-family="Verdana" font-size="12">updatedAt</text>
</g>

<!-- Entity FORMAT -->
<g id="entity-FORMAT">
	<g id="frame-FORMAT">
		<rect x="347" y="195" width="74" height="25" fill="#abd9e9" stroke="#abd9e9" stroke-width="0"/>
		<rect x="347" y="220.0" width="74" height="59" fill="#e0f3f8" stroke="#e0f3f8" stroke-width="0"/>
		<rect x="347" y="195" width="74" height="84" fill="none" stroke="#74add1" stroke-width="2"/>
		<line x1="347" y1="220" x2="421" y2="220" stroke="#74add1" stroke-width="1"/>
	</g>
	<text x="358" y="212.7" fill="#000000" font-family="Verdana" font-size="12">FORMAT</text>
	<text x="352" y="237.8" fill="#000000" font-family="Verdana" font-size="12">name</text>
	<line x1="352" y1="240" x2="387" y2="240" stroke="#000000" stroke-width="1"/>
	<text x="352" y="254.8" fill="#000000" font-family="Verdana" font-size="12">createdAt</text>
	<text x="352" y="271.8" fill="#000000" font-family="Verdana" font-size="12">updatedAt</text>
</g>

<!-- Entity REVIEW -->
<g id="entity-REVIEW">
	<g id="frame-REVIEW">
		<rect x="347" y="9" width="74" height="25" fill="#abd9e9" stroke="#abd9e9" stroke-width="0"/>
		<rect x="347" y="34.0" width="74" height="93" fill="#e0f3f8" stroke="#e0f3f8" stroke-width="0"/>
		<rect x="347" y="9" width="74" height="118" fill="none" stroke="#74add1" stroke-width="2"/>
		<line x1="347" y1="34" x2="421" y2="34" stroke="#74add1" stroke-width="1"/>
	</g>
	<text x="359" y="26.7" fill="#000000" font-family="Verdana" font-size="12">REVIEW</text>
	<text x="352" y="51.7" fill="#000000" font-family="Verdana" font-size="12">title</text>
	<line x1="352" y1="54" x2="376" y2="54" stroke="#000000" stroke-width="1"/>
	<text x="352" y="68.8" fill="#000000" font-family="Verdana" font-size="12">body</text>
	<text x="352" y="85.8" fill="#000000" font-family="Verdana" font-size="12">rating</text>
	<text x="352" y="102.8" fill="#000000" font-family="Verdana" font-size="12">createdAt</text>
	<text x="352" y="119.8" fill="#000000" font-family="Verdana" font-size="12">updatedAt</text>
</g>

<!-- Entity AUTHOR -->
<g id="entity-AUTHOR">
	<g id="frame-AUTHOR">
		<rect x="11" y="9" width="74" height="25" fill="#abd9e9" stroke="#abd9e9" stroke-width="0"/>
		<rect x="11" y="34.0" width="74" height="93" fill="#e0f3f8" stroke="#e0f3f8" stroke-width="0"/>
		<rect x="11" y="9" width="74" height="118" fill="none" stroke="#74add1" stroke-width="2"/>
		<line x1="11" y1="34" x2="85" y2="34" stroke="#74add1" stroke-width="1"/>
	</g>
	<text x="22" y="26.7" fill="#000000" font-family="Verdana" font-size="12">AUTHOR</text>
	<text x="16" y="51.7" fill="#000000" font-family="Verdana" font-size="12">firstname</text>
	<line x1="16" y1="54" x2="74" y2="54" stroke="#000000" stroke-width="1"/>
	<text x="16" y="68.8" fill="#000000" font-family="Verdana" font-size="12">lastname</text>
	<text x="16" y="85.8" fill="#000000" font-family="Verdana" font-size="12">biography</text>
	<text x="16" y="102.8" fill="#000000" font-family="Verdana" font-size="12">createdAt</text>
	<text x="16" y="119.8" fill="#000000" font-family="Verdana" font-size="12">updatedAt</text>
</g>

<!-- Entity BOOK -->
<g id="entity-BOOK">
	<g id="frame-BOOK">
		<rect x="115" y="152" width="82" height="25" fill="#abd9e9" stroke="#abd9e9" stroke-width="0"/>
		<rect x="115" y="177.0" width="82" height="145" fill="#e0f3f8" stroke="#e0f3f8" stroke-width="0"/>
		<rect x="115" y="152" width="82" height="170" fill="none" stroke="#74add1" stroke-width="2"/>
		<line x1="115" y1="177" x2="197" y2="177" stroke="#74add1" stroke-width="1"/>
	</g>
	<text x="138" y="169.7" fill="#000000" font-family="Verdana" font-size="12">BOOK</text>
	<text x="120" y="194.7" fill="#000000" font-family="Verdana" font-size="12">title</text>
	<line x1="120" y1="197" x2="144" y2="197" stroke="#000000" stroke-width="1"/>
	<text x="120" y="211.7" fill="#000000" font-family="Verdana" font-size="12">image</text>
	<text x="120" y="228.7" fill="#000000" font-family="Verdana" font-size="12">summary</text>
	<text x="120" y="245.8" fill="#000000" font-family="Verdana" font-size="12">nbr_page</text>
	<text x="120" y="262.8" fill="#000000" font-family="Verdana" font-size="12">price</text>
	<text x="120" y="279.8" fill="#000000" font-family="Verdana" font-size="12">publishedAt</text>
	<text x="120" y="296.8" fill="#000000" font-family="Verdana" font-size="12">createdAt</text>
	<text x="120" y="313.8" fill="#000000" font-family="Verdana" font-size="12">updatedAt</text>
</g>

<!-- Entity USER -->
<g id="entity-USER">
	<g id="frame-USER">
		<rect x="453" y="178" width="74" height="25" fill="#abd9e9" stroke="#abd9e9" stroke-width="0"/>
		<rect x="453" y="203.0" width="74" height="93" fill="#e0f3f8" stroke="#e0f3f8" stroke-width="0"/>
		<rect x="453" y="178" width="74" height="118" fill="none" stroke="#74add1" stroke-width="2"/>
		<line x1="453" y1="203" x2="527" y2="203" stroke="#74add1" stroke-width="1"/>
	</g>
	<text x="473" y="195.7" fill="#000000" font-family="Verdana" font-size="12">USER</text>
	<text x="458" y="220.7" fill="#000000" font-family="Verdana" font-size="12">username</text>
	<line x1="458" y1="223" x2="519" y2="223" stroke="#000000" stroke-width="1"/>
	<text x="458" y="237.8" fill="#000000" font-family="Verdana" font-size="12">email</text>
	<text x="458" y="254.8" fill="#000000" font-family="Verdana" font-size="12">password</text>
	<text x="458" y="271.8" fill="#000000" font-family="Verdana" font-size="12">createdAt</text>
	<text x="458" y="288.8" fill="#000000" font-family="Verdana" font-size="12">updatedAt</text>
</g>

<!-- Entity GENRE -->
<g id="entity-GENRE">
	<g id="frame-GENRE">
		<rect x="234" y="347" width="74" height="25" fill="#abd9e9" stroke="#abd9e9" stroke-width="0"/>
		<rect x="234" y="372.0" width="74" height="59" fill="#e0f3f8" stroke="#e0f3f8" stroke-width="0"/>
		<rect x="234" y="347" width="74" height="84" fill="none" stroke="#74add1" stroke-width="2"/>
		<line x1="234" y1="372" x2="308" y2="372" stroke="#74add1" stroke-width="1"/>
	</g>
	<text x="249" y="364.7" fill="#000000" font-family="Verdana" font-size="12">GENRE</text>
	<text x="239" y="389.8" fill="#000000" font-family="Verdana" font-size="12">name</text>
	<line x1="239" y1="392" x2="274" y2="392" stroke="#000000" stroke-width="1"/>
	<text x="239" y="406.8" fill="#000000" font-family="Verdana" font-size="12">createdAt</text>
	<text x="239" y="423.8" fill="#000000" font-family="Verdana" font-size="12">updatedAt</text>
</g>
</svg>